ModelForces
version=1
nRows=4
nColumns=206
inDegrees=no

This file contains the forces exerted on a model during a simulation.

A force is a generalized force, meaning that it can be either a force (N) or a torque (Nm).

Units are S.I. units (second, meters, Newtons, ...)
Angles are in degrees.

endheader
time	glut_med1_r	glut_med2_r	glut_med3_r	glut_min1_r	glut_min2_r	glut_min3_r	semimem_r	semiten_r	bifemlh_r	bifemsh_r	sar_r	add_long_r	add_brev_r	add_mag1_r	add_mag2_r	add_mag3_r	tfl_r	pect_r	grac_r	glut_max1_r	glut_max2_r	glut_max3_r	iliacus_r	psoas_r	quad_fem_r	gem_r	peri_r	rect_fem_r	vas_med_r	vas_int_r	vas_lat_r	med_gas_r	lat_gas_r	soleus_r	tib_post_r	flex_dig_r	flex_hal_r	tib_ant_r	per_brev_r	per_long_r	per_tert_r	ext_dig_r	ext_hal_r	glut_med1_l	glut_med2_l	glut_med3_l	glut_min1_l	glut_min2_l	glut_min3_l	semimem_l	semiten_l	bifemlh_l	bifemsh_l	sar_l	add_long_l	add_brev_l	add_mag1_l	add_mag2_l	add_mag3_l	tfl_l	pect_l	grac_l	glut_max1_l	glut_max2_l	glut_max3_l	iliacus_l	psoas_l	quad_fem_l	gem_l	peri_l	rect_fem_l	vas_med_l	vas_int_l	vas_lat_l	med_gas_l	lat_gas_l	soleus_l	tib_post_l	flex_dig_l	flex_hal_l	tib_ant_l	per_brev_l	per_long_l	per_tert_l	ext_dig_l	ext_hal_l	ercspn_r	ercspn_l	intobl_r	intobl_l	extobl_r	extobl_l	femur_lat_meniscii_l.femur_lat_l.force.X	femur_lat_meniscii_l.femur_lat_l.force.Y	femur_lat_meniscii_l.femur_lat_l.force.Z	femur_lat_meniscii_l.femur_lat_l.torque.X	femur_lat_meniscii_l.femur_lat_l.torque.Y	femur_lat_meniscii_l.femur_lat_l.torque.Z	femur_lat_meniscii_l.meniscus_lat_l.force.X	femur_lat_meniscii_l.meniscus_lat_l.force.Y	femur_lat_meniscii_l.meniscus_lat_l.force.Z	femur_lat_meniscii_l.meniscus_lat_l.torque.X	femur_lat_meniscii_l.meniscus_lat_l.torque.Y	femur_lat_meniscii_l.meniscus_lat_l.torque.Z	femur_med_meniscii_l.femur_med_l.force.X	femur_med_meniscii_l.femur_med_l.force.Y	femur_med_meniscii_l.femur_med_l.force.Z	femur_med_meniscii_l.femur_med_l.torque.X	femur_med_meniscii_l.femur_med_l.torque.Y	femur_med_meniscii_l.femur_med_l.torque.Z	femur_med_meniscii_l.meniscus_med_l.force.X	femur_med_meniscii_l.meniscus_med_l.force.Y	femur_med_meniscii_l.meniscus_med_l.force.Z	femur_med_meniscii_l.meniscus_med_l.torque.X	femur_med_meniscii_l.meniscus_med_l.torque.Y	femur_med_meniscii_l.meniscus_med_l.torque.Z	femur_lat_meniscii_r.femur_lat_r.force.X	femur_lat_meniscii_r.femur_lat_r.force.Y	femur_lat_meniscii_r.femur_lat_r.force.Z	femur_lat_meniscii_r.femur_lat_r.torque.X	femur_lat_meniscii_r.femur_lat_r.torque.Y	femur_lat_meniscii_r.femur_lat_r.torque.Z	femur_lat_meniscii_r.meniscus_lat_r.force.X	femur_lat_meniscii_r.meniscus_lat_r.force.Y	femur_lat_meniscii_r.meniscus_lat_r.force.Z	femur_lat_meniscii_r.meniscus_lat_r.torque.X	femur_lat_meniscii_r.meniscus_lat_r.torque.Y	femur_lat_meniscii_r.meniscus_lat_r.torque.Z	femur_med_meniscii_r.femur_med_r.force.X	femur_med_meniscii_r.femur_med_r.force.Y	femur_med_meniscii_r.femur_med_r.force.Z	femur_med_meniscii_r.femur_med_r.torque.X	femur_med_meniscii_r.femur_med_r.torque.Y	femur_med_meniscii_r.femur_med_r.torque.Z	femur_med_meniscii_r.meniscus_med_r.force.X	femur_med_meniscii_r.meniscus_med_r.force.Y	femur_med_meniscii_r.meniscus_med_r.force.Z	femur_med_meniscii_r.meniscus_med_r.torque.X	femur_med_meniscii_r.meniscus_med_r.torque.Y	femur_med_meniscii_r.meniscus_med_r.torque.Z	femur_med_tibia_l.tibia_upper_l.force.X	femur_med_tibia_l.tibia_upper_l.force.Y	femur_med_tibia_l.tibia_upper_l.force.Z	femur_med_tibia_l.tibia_upper_l.torque.X	femur_med_tibia_l.tibia_upper_l.torque.Y	femur_med_tibia_l.tibia_upper_l.torque.Z	femur_med_tibia_l.femur_med_l.force.X	femur_med_tibia_l.femur_med_l.force.Y	femur_med_tibia_l.femur_med_l.force.Z	femur_med_tibia_l.femur_med_l.torque.X	femur_med_tibia_l.femur_med_l.torque.Y	femur_med_tibia_l.femur_med_l.torque.Z	femur_lat_tibia_l.tibia_upper_l.force.X	femur_lat_tibia_l.tibia_upper_l.force.Y	femur_lat_tibia_l.tibia_upper_l.force.Z	femur_lat_tibia_l.tibia_upper_l.torque.X	femur_lat_tibia_l.tibia_upper_l.torque.Y	femur_lat_tibia_l.tibia_upper_l.torque.Z	femur_lat_tibia_l.femur_lat_l.force.X	femur_lat_tibia_l.femur_lat_l.force.Y	femur_lat_tibia_l.femur_lat_l.force.Z	femur_lat_tibia_l.femur_lat_l.torque.X	femur_lat_tibia_l.femur_lat_l.torque.Y	femur_lat_tibia_l.femur_lat_l.torque.Z	femur_med_tibia_r.tibia_upper_r.force.X	femur_med_tibia_r.tibia_upper_r.force.Y	femur_med_tibia_r.tibia_upper_r.force.Z	femur_med_tibia_r.tibia_upper_r.torque.X	femur_med_tibia_r.tibia_upper_r.torque.Y	femur_med_tibia_r.tibia_upper_r.torque.Z	femur_med_tibia_r.femur_med_r.force.X	femur_med_tibia_r.femur_med_r.force.Y	femur_med_tibia_r.femur_med_r.force.Z	femur_med_tibia_r.femur_med_r.torque.X	femur_med_tibia_r.femur_med_r.torque.Y	femur_med_tibia_r.femur_med_r.torque.Z	femur_lat_tibia_r.tibia_upper_r.force.X	femur_lat_tibia_r.tibia_upper_r.force.Y	femur_lat_tibia_r.tibia_upper_r.force.Z	femur_lat_tibia_r.tibia_upper_r.torque.X	femur_lat_tibia_r.tibia_upper_r.torque.Y	femur_lat_tibia_r.tibia_upper_r.torque.Z	femur_lat_tibia_r.femur_lat_r.force.X	femur_lat_tibia_r.femur_lat_r.force.Y	femur_lat_tibia_r.femur_lat_r.force.Z	femur_lat_tibia_r.femur_lat_r.torque.X	femur_lat_tibia_r.femur_lat_r.torque.Y	femur_lat_tibia_r.femur_lat_r.torque.Z	aACL_R	pACL_R	aPCL_R	pPCL_R	aMCL_R	mMCL_R	pMCL_R	aLCL_R	mLCL_R	pLCL_R	aPCL_L	pPCL_L	aMCL_L	aLCL_L	ground_prescribedForce_0_fx	ground_prescribedForce_0_fy	ground_prescribedForce_0_fz
      0.73544838	      7.54795452	      5.66575578	      6.06471883	      2.65893614	      3.17894685	      3.19274339	      8.82449340	      4.08200841	      7.96389695	      7.26728099	      0.00000000	      5.61328363	      0.00000000	      2.91892509	      2.45372376	      3.98744976	      4.44718869	      2.23871419	      1.55738703	      3.65607572	      5.55600614	      4.14741844	     22.64760905	     12.96686242	      3.62667488	      2.85431757	      4.09014053	     10.80588428	      6.82552771	      7.04708402	      9.02195207	      5.46237224	      2.98502296	      8.97351805	     13.13810677	      2.91250045	      2.31961541	     17.46067806	      4.10317700	      8.48404171	     11.48866311	      9.62590170	      2.54876017	      7.54795452	      5.66575578	      6.06471883	      2.65893614	      3.17894685	      3.19274339	      8.74525683	      4.08323655	      7.68290640	      7.21602202	      1.51974340	      5.61328363	      4.14106188	      2.91892509	      2.45372376	      3.98744976	      4.09701672	      2.23871419	      1.55870245	      3.65607572	      5.55600614	      4.14741844	     22.64760905	     12.96686242	      3.62667488	      2.85431757	      4.09014053	     10.66723948	      6.59268634	      7.56233860	      8.13155732	     13.95396983	      6.47915044	     31.08776012	     42.35976226	      2.59048972	      2.84336840	      8.45185043	      4.33408067	     12.44688580	      2.00588594	      5.35905384	      1.70120743	     25.00659365	     25.00659365	      9.00015218	      9.00015218	     26.80474579	     26.80474579	      2.76307435	     50.99597937	     -9.56042239	      5.21997485	     -0.02578839	      1.48581788	     -2.76307435	    -50.99597937	      9.56042239	     -1.74637766	      0.02558040	     -0.48301696	     -3.31599387	     20.97615968	     -3.40468921	      0.94473225	     -0.02138609	     -1.00501789	      3.31599387	    -20.97615968	      3.40468921	      0.28075727	      0.00368718	     -0.29758878	     23.92878413	     67.14476395	     15.57652247	     -8.09463456	      0.55255453	     10.05323042	    -23.92878413	    -67.14476395	    -15.57652247	      2.30510805	     -0.65865096	     -0.70196796	     62.10669370	     92.84997638	     -1.37654691	      2.46454479	     -1.25930166	     26.12001929	    -62.10669370	    -92.84997638	      1.37654691	     -1.61398570	      1.04833878	     -1.97444630	      0.00000000	      0.00000000	      0.00000000	      0.00000000	      0.00000000	      0.00000000	      0.00000000	      0.00000000	      0.00000000	      0.00000000	      0.00000000	      0.00000000	      0.00000000	      0.00000000	      0.00000000	      0.00000000	      0.00000000	      0.00000000	      0.00000000	      0.00000000	      0.00000000	      0.00000000	      0.00000000	      0.00000000	      0.00000000	      0.00000000	      0.00000000	      0.00000000	      0.00000000	      0.00000000	      0.00000000	      0.00000000	      0.00000000	      0.00000000	      0.00000000	      0.00000000	      0.00000000	      0.00000000	      0.00000000	      0.00000000	      0.00000000	      0.00000000	      0.00000000	      0.00000000	      0.00000000	      0.00000000	      0.00000000	      0.00000000	     10.32770854	     42.29751468	      0.00000000	      0.00000000	     12.10056867	     10.31938113	     15.05695915	      0.00000000	      0.31034964	      0.81137242	      0.00000000	      0.00000000	      0.00000001	      0.00000000	    110.00000000	      0.00000000	      0.00000000
      0.73595958	      7.54793855	      5.66574478	      6.06470691	      2.65893120	      3.17894150	      3.19273665	      8.82449276	      4.08199423	      7.96362172	      7.26646457	      0.00000000	      5.61327260	      0.00000000	      2.91891947	      2.45371892	      3.98744104	      4.44714817	      2.23871000	      1.55736736	      3.65606863	      5.55599533	      4.14741022	     22.64758910	     12.96684000	      3.62666799	      2.85431435	      4.09012757	     10.80577477	      6.82557545	      7.04724947	      9.02236359	      5.46858922	      2.98920065	      8.98155360	     13.15140045	      2.91358376	      2.31706344	     17.45791912	      4.10162469	      8.48483153	     11.48611076	      9.63913340	      2.55178746	      7.54793855	      5.66574478	      6.06470691	      2.65893120	      3.17894150	      3.19273665	      8.74523354	      4.08322799	      7.68288703	      7.21600830	      1.51974059	      5.61327260	      4.14105424	      2.91891947	      2.45371892	      3.98744104	      4.09701133	      2.23871000	      1.55869952	      3.65606863	      5.55599533	      4.14741022	     22.64758910	     12.96684000	      3.62666799	      2.85431435	      4.09012757	     10.66721314	      6.59267325	      7.56232329	      8.13154094	     13.95390863	      6.47912196	     31.08766186	     42.35972395	      2.59008122	      2.84317779	      8.45183061	      4.33406877	     12.44685636	      2.00588246	      5.35924711	      1.70126034	     25.00654705	     25.00654705	      9.00013391	      9.00013391	     26.80472938	     26.80472938	      2.76307435	     50.99597937	     -9.56042239	      5.21997485	     -0.02578839	      1.48581788	     -2.76307435	    -50.99597937	      9.56042239	     -1.74637766	      0.02558040	     -0.48301696	     -3.31599387	     20.97615968	     -3.40468921	      0.94473225	     -0.02138609	     -1.00501789	      3.31599387	    -20.97615968	      3.40468921	      0.28075727	      0.00368718	     -0.29758878	     23.92782388	     67.13350051	     15.57458753	     -8.09355581	      0.55252689	     10.05284215	    -23.92782388	    -67.13350051	    -15.57458753	      2.30472739	     -0.65861367	     -0.70196571	     62.11837235	     92.86482202	     -1.37298196	      2.46339181	     -1.25957019	     26.12496947	    -62.11837235	    -92.86482202	      1.37298196	     -1.61417419	      1.04857161	     -1.97485592	      0.00000000	      0.00000000	      0.00000000	      0.00000000	      0.00000000	      0.00000000	      0.00000000	      0.00000000	      0.00000000	      0.00000000	      0.00000000	      0.00000000	      0.00000000	      0.00000000	      0.00000000	      0.00000000	      0.00000000	      0.00000000	      0.00000000	      0.00000000	      0.00000000	      0.00000000	      0.00000000	      0.00000000	      0.00000000	      0.00000000	      0.00000000	      0.00000000	      0.00000000	      0.00000000	      0.00000000	      0.00000000	      0.00000000	      0.00000000	      0.00000000	      0.00000000	      0.00000000	      0.00000000	      0.00000000	      0.00000000	      0.00000000	      0.00000000	      0.00000000	      0.00000000	      0.00000000	      0.00000000	      0.00000000	      0.00000000	     10.32808455	     42.29946608	      0.00000000	      0.00000000	     12.09812196	     10.31693915	     15.05440666	      0.00000000	      0.30041053	      0.80185505	      0.00000000	      0.00000000	      0.00000001	      0.00000000	    110.00000000	      0.00000000	      0.00000000
      0.73762732	      7.54788719	      5.66570938	      6.06466855	      2.65891529	      3.17892430	      3.19271497	      8.81957416	      4.07947229	      7.95927768	      7.25264703	      0.00000000	      5.61323713	      0.00000000	      2.91890136	      2.45370334	      3.98741299	      4.44593851	      2.23869652	      1.55541778	      3.65604581	      5.55596054	      4.14738378	     22.64752494	     12.96676786	      3.62664582	      2.85430398	      4.09008585	     10.80007567	      6.81277375	      7.03511814	      9.00934083	      5.48347487	      3.00049546	      9.00404124	     13.19787798	      2.91710058	      2.30960358	     17.45169940	      4.09499886	      8.48540852	     11.47641014	      9.68303311	      2.56133548	      7.54788719	      5.66570938	      6.06466855	      2.65891529	      3.17892430	      3.19271497	      8.74515861	      4.08320047	      7.68282474	      7.21596417	      1.51973154	      5.61323713	      4.14102970	      2.91890136	      2.45370334	      3.98741299	      4.09699399	      2.23869652	      1.55869007	      3.65604581	      5.55596054	      4.14738378	     22.64752494	     12.96676786	      3.62664582	      2.85430398	      4.09008585	     10.66712838	      6.59263113	      7.56227404	      8.13148826	     13.95371172	      6.47903036	     31.08734577	     42.35960073	      2.58874605	      2.84255567	      8.45176686	      4.33403047	     12.44676165	      2.00587127	      5.35987921	      1.70143330	     25.00639711	     25.00639711	      9.00007514	      9.00007514	     26.80467659	     26.80467659	      2.76307435	     50.99597937	     -9.56042239	      5.21997485	     -0.02578839	      1.48581788	     -2.76307435	    -50.99597937	      9.56042239	     -1.74637766	      0.02558040	     -0.48301696	     -3.31599387	     20.97615968	     -3.40468921	      0.94473225	     -0.02138609	     -1.00501789	      3.31599387	    -20.97615968	      3.40468921	      0.28075727	      0.00368718	     -0.29758878	     23.98086923	     67.30313623	     15.65062667	     -8.12951516	      0.55378960	     10.07513442	    -23.98086923	    -67.30313623	    -15.65062667	      2.31183788	     -0.66015918	     -0.70349915	     62.33576902	     93.26158730	     -1.33356849	      2.45529472	     -1.26430504	     26.21664839	    -62.33576902	    -93.26158730	      1.33356849	     -1.62001494	      1.05254439	     -1.98191774	      0.00000000	      0.00000000	      0.00000000	      0.00000000	      0.00000000	      0.00000000	      0.00000000	      0.00000000	      0.00000000	      0.00000000	      0.00000000	      0.00000000	      0.00000000	      0.00000000	      0.00000000	      0.00000000	      0.00000000	      0.00000000	      0.00000000	      0.00000000	      0.00000000	      0.00000000	      0.00000000	      0.00000000	      0.00000000	      0.00000000	      0.00000000	      0.00000000	      0.00000000	      0.00000000	      0.00000000	      0.00000000	      0.00000000	      0.00000000	      0.00000000	      0.00000000	      0.00000000	      0.00000000	      0.00000000	      0.00000000	      0.00000000	      0.00000000	      0.00000000	      0.00000000	      0.00000000	      0.00000000	      0.00000000	      0.00000000	     10.27978379	     42.23836863	      0.00000000	      0.00000000	     12.02968066	     10.24847672	     14.98622341	      0.00000000	      0.24621352	      0.74678775	      0.00000000	      0.00000000	      0.00000001	      0.00000000	    110.00000000	      0.00000000	      0.00000000
      0.73885183	      7.54785017	      5.66568388	      6.06464091	      2.65890383	      3.17891190	      3.19269934	      8.81249976	      4.07614851	      7.95406436	      7.23852417	      0.00000000	      5.61321156	      0.00000000	      2.91888832	      2.45369211	      3.98739278	      4.44434464	      2.23868681	      1.55356019	      3.65602936	      5.55593547	      4.14736472	     22.64747869	     12.96671588	      3.62662985	      2.85429651	      4.09005578	     10.79227069	      6.79625812	      7.01840328	      8.99051113	      5.49136637	      3.00757567	      9.01954266	     13.23620814	      2.91988853	      2.30517976	     17.44982211	      4.08815823	      8.48337822	     11.46686061	      9.71529002	      2.56794534	      7.54785017	      5.66568388	      6.06464091	      2.65890383	      3.17891190	      3.19269934	      8.74510461	      4.08318064	      7.68277985	      7.21593236	      1.51972501	      5.61321156	      4.14101200	      2.91888832	      2.45369211	      3.98739278	      4.09698149	      2.23868681	      1.55868327	      3.65602936	      5.55593547	      4.14736472	     22.64747869	     12.96671588	      3.62662985	      2.85429651	      4.09005578	     10.66706729	      6.59260077	      7.56223855	      8.13145029	     13.95356979	      6.47896432	     31.08711796	     42.35951192	      2.58776329	      2.84209860	      8.45172091	      4.33400286	     12.44669340	      2.00586321	      5.36034480	      1.70156059	     25.00628905	     25.00628905	      9.00003278	      9.00003278	     26.80463855	     26.80463855	      2.76307435	     50.99597937	     -9.56042239	      5.21997485	     -0.02578839	      1.48581788	     -2.76307435	    -50.99597937	      9.56042239	     -1.74637766	      0.02558040	     -0.48301696	     -3.31599387	     20.97615968	     -3.40468921	      0.94473225	     -0.02138609	     -1.00501789	      3.31599387	    -20.97615968	      3.40468921	      0.28075727	      0.00368718	     -0.29758878	     24.04175337	     67.58306684	     15.76579981	     -8.18450736	      0.55527537	     10.10061478	    -24.04175337	    -67.58306684	    -15.76579981	      2.32323326	     -0.66201081	     -0.70503596	     62.53075142	     93.79546994	     -1.21747404	      2.41767961	     -1.26852265	     26.29868916	    -62.53075142	    -93.79546994	      1.21747404	     -1.62550989	      1.05596320	     -1.98781859	      0.00000000	      0.00000000	      0.00000000	      0.00000000	      0.00000000	      0.00000000	      0.00000000	      0.00000000	      0.00000000	      0.00000000	      0.00000000	      0.00000000	      0.00000000	      0.00000000	      0.00000000	      0.00000000	      0.00000000	      0.00000000	      0.00000000	      0.00000000	      0.00000000	      0.00000000	      0.00000000	      0.00000000	      0.00000000	      0.00000000	      0.00000000	      0.00000000	      0.00000000	      0.00000000	      0.00000000	      0.00000000	      0.00000000	      0.00000000	      0.00000000	      0.00000000	      0.00000000	      0.00000000	      0.00000000	      0.00000000	      0.00000000	      0.00000000	      0.00000000	      0.00000000	      0.00000000	      0.00000000	      0.00000000	      0.00000000	     10.17208766	     42.10544125	      0.00000000	      0.00000000	     11.87193944	     10.09139434	     14.83058746	      0.00000000	      0.13310777	      0.62987770	      0.00000000	      0.00000000	      0.00000001	      0.00000000	    110.00000000	      0.00000000	      0.00000000
